<mxfile host="Electron" modified="2021-03-27T10:56:08.017Z" agent="5.0 (Windows NT 10.0; Win64; x64) AppleWebKit/537.36 (KHTML, like Gecko) draw.io/14.1.8 Chrome/87.0.4280.88 Electron/11.1.1 Safari/537.36" etag="0eYnYZPFPGvpXpM4aYtM" compressed="false" version="14.1.8" type="device">
  <diagram id="qsK-uooAxS1QpvShMwKK" name="Seite-1">
    <mxGraphModel dx="769" dy="484" grid="1" gridSize="10" guides="1" tooltips="1" connect="1" arrows="1" fold="1" page="1" pageScale="1" pageWidth="827" pageHeight="1169" math="0" shadow="0">
      <root>
        <mxCell id="0" />
        <mxCell id="1" parent="0" />
        <mxCell id="pB9b8BpoEIkRc4m-W9jE-16" value="" style="rounded=1;whiteSpace=wrap;html=1;strokeWidth=1;fillColor=#bac8d3;strokeColor=#23445d;" vertex="1" parent="1">
          <mxGeometry x="130" y="75" width="100" height="210" as="geometry" />
        </mxCell>
        <mxCell id="pB9b8BpoEIkRc4m-W9jE-15" value="" style="rounded=1;whiteSpace=wrap;html=1;fillColor=#ffe6cc;strokeColor=#d79b00;" vertex="1" parent="1">
          <mxGeometry x="450" y="75" width="100" height="210" as="geometry" />
        </mxCell>
        <mxCell id="pB9b8BpoEIkRc4m-W9jE-14" value="" style="rounded=1;whiteSpace=wrap;html=1;fillColor=#d5e8d4;strokeColor=#82b366;" vertex="1" parent="1">
          <mxGeometry x="290" y="280" width="100" height="60" as="geometry" />
        </mxCell>
        <mxCell id="pB9b8BpoEIkRc4m-W9jE-13" value="" style="rounded=1;whiteSpace=wrap;html=1;fillColor=#dae8fc;strokeColor=#6c8ebf;" vertex="1" parent="1">
          <mxGeometry x="245" y="20" width="190" height="60" as="geometry" />
        </mxCell>
        <mxCell id="pB9b8BpoEIkRc4m-W9jE-1" value="Projekt" style="rounded=1;whiteSpace=wrap;html=1;fontStyle=1;fillColor=#e1d5e7;strokeColor=#9673a6;strokeWidth=2;" vertex="1" parent="1">
          <mxGeometry x="280" y="160" width="120" height="40" as="geometry" />
        </mxCell>
        <mxCell id="pB9b8BpoEIkRc4m-W9jE-2" value="Projektleiter" style="rounded=1;whiteSpace=wrap;html=1;fillColor=#b1ddf0;strokeColor=#10739e;" vertex="1" parent="1">
          <mxGeometry x="255" y="30" width="80" height="40" as="geometry" />
        </mxCell>
        <mxCell id="pB9b8BpoEIkRc4m-W9jE-3" value="Projektteam" style="rounded=1;whiteSpace=wrap;html=1;fillColor=#b1ddf0;strokeColor=#10739e;" vertex="1" parent="1">
          <mxGeometry x="345" y="30" width="80" height="40" as="geometry" />
        </mxCell>
        <mxCell id="pB9b8BpoEIkRc4m-W9jE-4" value="Kunde" style="rounded=1;whiteSpace=wrap;html=1;fillColor=#b0e3e6;strokeColor=#0e8088;" vertex="1" parent="1">
          <mxGeometry x="300" y="290" width="80" height="40" as="geometry" />
        </mxCell>
        <mxCell id="pB9b8BpoEIkRc4m-W9jE-5" value="Lieferanten" style="rounded=1;whiteSpace=wrap;html=1;fillColor=#fff2cc;strokeColor=#d6b656;" vertex="1" parent="1">
          <mxGeometry x="460" y="85" width="80" height="40" as="geometry" />
        </mxCell>
        <mxCell id="pB9b8BpoEIkRc4m-W9jE-6" value="Öffentlichkeit" style="rounded=1;whiteSpace=wrap;html=1;fillColor=#fff2cc;strokeColor=#d6b656;" vertex="1" parent="1">
          <mxGeometry x="460" y="135" width="80" height="40" as="geometry" />
        </mxCell>
        <mxCell id="pB9b8BpoEIkRc4m-W9jE-7" value="Behörden" style="rounded=1;whiteSpace=wrap;html=1;fillColor=#fff2cc;strokeColor=#d6b656;" vertex="1" parent="1">
          <mxGeometry x="460" y="185" width="80" height="40" as="geometry" />
        </mxCell>
        <mxCell id="pB9b8BpoEIkRc4m-W9jE-8" value="Konkurrenz" style="rounded=1;whiteSpace=wrap;html=1;fillColor=#fff2cc;strokeColor=#d6b656;" vertex="1" parent="1">
          <mxGeometry x="460" y="235" width="80" height="40" as="geometry" />
        </mxCell>
        <mxCell id="pB9b8BpoEIkRc4m-W9jE-9" value="Lenkungs-&lt;br&gt;ausschuss" style="rounded=1;whiteSpace=wrap;html=1;fillColor=#647687;strokeColor=#314354;fontColor=#ffffff;" vertex="1" parent="1">
          <mxGeometry x="140" y="85" width="80" height="40" as="geometry" />
        </mxCell>
        <mxCell id="pB9b8BpoEIkRc4m-W9jE-10" value="andere&lt;br&gt;Abteilungen" style="rounded=1;whiteSpace=wrap;html=1;fillColor=#647687;strokeColor=#314354;fontColor=#ffffff;" vertex="1" parent="1">
          <mxGeometry x="140" y="135" width="80" height="40" as="geometry" />
        </mxCell>
        <mxCell id="pB9b8BpoEIkRc4m-W9jE-11" value="Betriebsrat" style="rounded=1;whiteSpace=wrap;html=1;fillColor=#647687;strokeColor=#314354;fontColor=#ffffff;" vertex="1" parent="1">
          <mxGeometry x="140" y="235" width="80" height="40" as="geometry" />
        </mxCell>
        <mxCell id="pB9b8BpoEIkRc4m-W9jE-12" value="Mitarbeiter" style="rounded=1;whiteSpace=wrap;html=1;fillColor=#647687;strokeColor=#314354;fontColor=#ffffff;" vertex="1" parent="1">
          <mxGeometry x="140" y="185" width="80" height="40" as="geometry" />
        </mxCell>
        <mxCell id="pB9b8BpoEIkRc4m-W9jE-17" value="" style="endArrow=classic;html=1;exitX=0.5;exitY=1;exitDx=0;exitDy=0;entryX=0.5;entryY=0;entryDx=0;entryDy=0;fillColor=#dae8fc;strokeColor=#6c8ebf;strokeWidth=1;" edge="1" parent="1" source="pB9b8BpoEIkRc4m-W9jE-13" target="pB9b8BpoEIkRc4m-W9jE-1">
          <mxGeometry width="50" height="50" relative="1" as="geometry">
            <mxPoint x="330" y="150" as="sourcePoint" />
            <mxPoint x="380" y="100" as="targetPoint" />
          </mxGeometry>
        </mxCell>
        <mxCell id="pB9b8BpoEIkRc4m-W9jE-18" value="" style="endArrow=classic;html=1;strokeWidth=1;fillColor=#ffe6cc;strokeColor=#d79b00;exitX=0;exitY=0.5;exitDx=0;exitDy=0;entryX=1;entryY=0.5;entryDx=0;entryDy=0;" edge="1" parent="1" source="pB9b8BpoEIkRc4m-W9jE-15" target="pB9b8BpoEIkRc4m-W9jE-1">
          <mxGeometry width="50" height="50" relative="1" as="geometry">
            <mxPoint x="650" y="200" as="sourcePoint" />
            <mxPoint x="700" y="150" as="targetPoint" />
          </mxGeometry>
        </mxCell>
        <mxCell id="pB9b8BpoEIkRc4m-W9jE-19" value="" style="endArrow=classic;html=1;strokeWidth=1;exitX=1;exitY=0.5;exitDx=0;exitDy=0;entryX=0;entryY=0.5;entryDx=0;entryDy=0;fillColor=#bac8d3;strokeColor=#23445d;" edge="1" parent="1" source="pB9b8BpoEIkRc4m-W9jE-16" target="pB9b8BpoEIkRc4m-W9jE-1">
          <mxGeometry width="50" height="50" relative="1" as="geometry">
            <mxPoint x="610" y="170" as="sourcePoint" />
            <mxPoint x="660" y="120" as="targetPoint" />
          </mxGeometry>
        </mxCell>
        <mxCell id="pB9b8BpoEIkRc4m-W9jE-20" value="" style="endArrow=classic;html=1;strokeWidth=1;fillColor=#d5e8d4;strokeColor=#82b366;exitX=0.5;exitY=0;exitDx=0;exitDy=0;entryX=0.5;entryY=1;entryDx=0;entryDy=0;" edge="1" parent="1" source="pB9b8BpoEIkRc4m-W9jE-14" target="pB9b8BpoEIkRc4m-W9jE-1">
          <mxGeometry width="50" height="50" relative="1" as="geometry">
            <mxPoint x="340" y="260" as="sourcePoint" />
            <mxPoint x="390" y="210" as="targetPoint" />
          </mxGeometry>
        </mxCell>
      </root>
    </mxGraphModel>
  </diagram>
</mxfile>
